<svg xmlns="http://www.w3.org/2000/svg" fill="none" height="45" width="101" viewBox="0 0 101 45">
  <path fill="#FFFFFE" fill-rule="evenodd" d="M.977.297v39.648h17.87v-1.704H2.68V2h96.615v36.24h-16.31v1.704H101V.297H.977Z" clip-rule="evenodd"/>
  <path fill="#FFFFFE" fill-rule="evenodd" d="M27.919 42.934v-3.241h-4.134v3.241h-1.438v-7.718h1.438v3.186h4.134v-3.186h1.437v7.718h-1.438Zm5.826-3.858c0 1.448 1.122 2.622 2.604 2.622 1.481 0 2.603-1.174 2.603-2.622s-1.122-2.622-2.603-2.622c-1.482 0-2.604 1.174-2.604 2.622Zm6.7 0c0 2.193-1.834 3.969-4.096 3.969-2.263 0-4.097-1.776-4.097-3.969 0-2.192 1.834-3.97 4.097-3.97 2.262 0 4.097 1.778 4.097 3.97Zm8.312 3.858-4.084-5.393v5.393h-1.412v-7.718h1.511l4.086 5.397v-5.397h1.412v7.718h-1.513Zm5.815-3.858c0 1.448 1.123 2.622 2.604 2.622 1.482 0 2.603-1.174 2.603-2.622s-1.121-2.622-2.603-2.622c-1.481 0-2.604 1.174-2.604 2.622Zm6.7 0c0 2.193-1.833 3.969-4.096 3.969s-4.097-1.776-4.097-3.969c0-2.192 1.834-3.97 4.097-3.97 2.263 0 4.097 1.778 4.097 3.97Zm4.333.101 2.01.002c1.285 0 1.77-.392 1.77-1.333 0-.942-.485-1.333-1.77-1.333h-2.01v2.664Zm1.94-3.96c2.382 0 3.332.76 3.332 2.538 0 1.28-.5 2.023-1.688 2.333l1.933 2.846h-1.654l-1.771-2.657c-.15.01-.3.015-.489.016h-1.603v2.641h-1.437v-7.717h3.378Zm12.071.725-.607 1.11c-.834-.46-1.875-.73-2.71-.73-.71.002-1.318.282-1.318.95 0 .428.253.625 1.668.989 1.893.504 3.158.846 3.158 2.437 0 1.543-1.298 2.347-3.11 2.347-1.337 0-2.624-.36-3.6-1.014l.648-1.074c.929.561 2.08.856 3.109.858.763.002 1.44-.29 1.44-.939 0-.79-.515-.867-2.05-1.26-1.796-.453-2.814-.87-2.814-2.173 0-1.62 1.354-2.334 3.022-2.336 1.153 0 2.309.307 3.164.835Zm-51.957-25.9v17.68l1.385.182v1.036h-6.863v-1.036l1.477-.183v-8.048h-8.77v8.049l1.354.182v1.036h-6.74v-1.036l1.354-.183v-17.68L9.502 9.86V8.853h6.74v1.006l-1.354.183v7.56h8.77v-7.56l-1.477-.183V8.853h6.863v1.006l-1.385.183Zm9.356 17.801 1.293.183v.914h-6.309v-.915l1.293-.181V15.74L32 15.559v-.915h5.016v13.2Zm4.032.21 1.262-.177V9.916l-1.262-.176v-.887h5.017v19.023l1.292.177v.887h-6.309v-.887ZM55.02 14.644h3.385v1.342H55.02v8.503c0 2.196.46 2.897 2.46 2.897.74 0 1.388 0 2.003-.153v.975c-1.817.64-3.356.915-4.648.915-2.893 0-3.57-1.31-3.57-3.811v-9.326h-2.647v-1.342h2.74v-2.986l3.662-1.099v4.085Zm16.22 7.194c0-4.512-1.354-6.493-3.54-6.493-2.124 0-3.479 1.89-3.479 6.493 0 4.542 1.355 6.431 3.478 6.431 2.28 0 3.541-1.797 3.541-6.431Zm4.123.09c0 4.452-3.014 7.439-7.755 7.439-4.586 0-7.51-1.952-7.51-7.438 0-4.603 3.016-7.681 7.755-7.681 4.68 0 7.51 2.774 7.51 7.68Zm17.111 6.098v.914h-6.309v-.915l1.263-.182v-8.14c0-2.255-.83-3.26-2.555-3.26-.8 0-2.062.548-2.986 1.188v10.212l1.293.183v.914h-6.338v-.915l1.29-.182v-12.01l-1.29-.183v-1.006h5.046v1.982c1.569-1.25 3.077-2.257 5.2-2.257 2.832 0 4.094 1.647 4.094 4.878v8.596l1.292.183ZM37.198 10.864c0 1.112-.91 2.013-2.031 2.013a2.022 2.022 0 0 1-2.032-2.013c0-1.11.91-2.011 2.032-2.011 1.121 0 2.03.9 2.03 2.011Zm61.416 31.055h-.543v1.433h-.319V41.92h-.542v-.27h1.404v.27ZM101 43.352h-.312v-1.285l-.644 1.086h-.117l-.643-1.086v1.285h-.314V41.65h.419l.596.995.596-.995H101v1.703Z" clip-rule="evenodd"/>
</svg>